<svg id="visual" viewBox="0 0 900 600" width="900" height="600" xmlns="http://www.w3.org/2000/svg" xmlns:xlink="http://www.w3.org/1999/xlink" version="1.1"><rect x="0" y="0" width="900" height="600" fill="#001220"></rect><defs><linearGradient id="grad1_0" x1="33.3%" y1="0%" x2="100%" y2="100%"><stop offset="20%" stop-color="#001220" stop-opacity="1"></stop><stop offset="80%" stop-color="#001220" stop-opacity="1"></stop></linearGradient></defs><defs><linearGradient id="grad2_0" x1="0%" y1="0%" x2="66.7%" y2="100%"><stop offset="20%" stop-color="#001220" stop-opacity="1"></stop><stop offset="80%" stop-color="#001220" stop-opacity="1"></stop></linearGradient></defs><g transform="translate(900, 0)"><path d="M0 270.4C-30.4 271.4 -60.8 272.4 -83.6 257.2C-106.4 241.9 -121.5 210.4 -136.4 187.7C-151.2 164.9 -165.7 150.9 -186.9 135.8C-208.1 120.6 -236 104.4 -251.1 81.6C-266.1 58.8 -268.3 29.4 -270.4 0L0 0Z" fill="#0000FF"></path></g><g transform="translate(0, 600)"><path d="M0 -270.4C21.2 -244.3 42.3 -218.2 68.9 -212.1C95.5 -206 127.5 -220 156.4 -215.2C185.3 -210.4 211.1 -186.7 218.8 -158.9C226.5 -131.1 216 -99.2 221.6 -72C227.2 -44.8 248.8 -22.4 270.4 0L0 0Z" fill="#0000FF"></path></g></svg>